<svg width="312" height="277" viewBox="0 0 312 277" fill="none" xmlns="http://www.w3.org/2000/svg">
<path d="M49.3283 197.37C50.6564 197.37 51.733 196.294 51.733 194.967C51.733 193.64 50.6564 192.565 49.3283 192.565C48.0002 192.565 46.9236 193.64 46.9236 194.967C46.9236 196.294 48.0002 197.37 49.3283 197.37Z" fill="#CFCFCF"/>
<path d="M205.265 96.9571C184.727 96.9571 163.821 96.1236 144.265 90.6813C125.076 85.3616 107.458 75.0408 91.7539 63.1021C81.4726 55.3309 72.1238 49.1287 58.7753 50.0603C45.7164 50.7662 33.2285 55.6382 23.1465 63.9601C6.16639 78.8161 8.71831 106.346 15.5153 125.615C25.7229 154.714 56.7877 174.988 83.1903 188.103C113.691 203.327 147.209 212.177 180.801 217.251C210.247 221.737 248.084 224.973 273.603 205.778C297.036 188.103 303.465 147.801 297.724 120.589C296.33 112.551 292.046 105.297 285.676 100.193C269.211 88.1563 244.648 96.1971 226.147 96.5894C219.276 96.7365 212.283 96.9081 205.265 96.9571Z" fill="#F2F2F2"/>
<path d="M162.496 220.291C177.796 220.291 190.199 207.9 190.199 192.614C190.199 177.328 177.796 164.937 162.496 164.937C147.196 164.937 134.793 177.328 134.793 192.614C134.793 207.9 147.196 220.291 162.496 220.291Z" fill="#226619"/>
<path d="M133.87 19.8241C135.401 19.4829 136.985 19.4464 138.531 19.7168C140.077 19.9872 141.554 20.559 142.879 21.3998C144.203 22.2406 145.349 23.3338 146.251 24.6169C147.152 25.9001 147.792 27.3482 148.134 28.8784L152.561 48.7141L129.186 53.9212L124.759 34.0856C124.416 32.5513 124.381 30.9646 124.654 29.4165C124.926 27.8683 125.503 26.3893 126.349 25.0642C127.196 23.7392 128.296 22.5942 129.586 21.6949C130.877 20.7957 132.332 20.1599 133.87 19.8241Z" fill="white" stroke="#57B74A" stroke-width="2" stroke-linecap="round" stroke-linejoin="round"/>
<path d="M243.078 175.429L101.029 207.053C100.147 207.251 99.2282 207.216 98.3638 206.95C97.4993 206.685 96.719 206.2 96.0997 205.541C95.4804 204.883 95.0436 204.075 94.8323 203.196C94.621 202.318 94.6425 201.4 94.8948 200.532L95.4837 198.497C100.391 181.116 104.661 161.97 100.735 144.32L92.3429 106.665C85.276 75.0163 104.268 42.7794 135.775 35.0082C143.457 33.1027 151.444 32.7518 159.265 33.9761C167.085 35.2004 174.581 37.9751 181.313 42.1371C188.044 46.299 193.874 51.764 198.459 58.2104C203.045 64.6569 206.293 71.9547 208.014 79.6742L216.675 118.604C220.626 136.254 232.551 151.846 244.477 165.427L245.875 167.02C246.442 167.703 246.825 168.518 246.988 169.389C247.152 170.26 247.091 171.159 246.812 172C246.532 172.841 246.042 173.597 245.389 174.197C244.736 174.797 243.941 175.221 243.078 175.429Z" fill="white" stroke="#57B74A" stroke-width="2" stroke-linecap="round" stroke-linejoin="round"/>
<path d="M138.007 151.159C137.969 145.433 139.894 139.867 143.464 135.387C147.033 130.907 152.03 127.783 157.624 126.537C163.218 125.29 169.071 125.995 174.208 128.535C179.344 131.075 183.455 135.296 185.856 140.495" stroke="#57B74A" stroke-width="2" stroke-linecap="round" stroke-linejoin="round"/>
<path d="M182 112C184.209 112 186 110.209 186 108C186 105.791 184.209 104 182 104C179.791 104 178 105.791 178 108C178 110.209 179.791 112 182 112Z" fill="#57B74A"/>
<path d="M128 124C130.209 124 132 122.209 132 120C132 117.791 130.209 116 128 116C125.791 116 124 117.791 124 120C124 122.209 125.791 124 128 124Z" fill="#57B74A"/>
<path d="M192.776 16.1317C194.104 16.1317 195.181 15.0561 195.181 13.7293C195.181 12.4025 194.104 11.3268 192.776 11.3268C191.448 11.3268 190.371 12.4025 190.371 13.7293C190.371 15.0561 191.448 16.1317 192.776 16.1317Z" fill="#1A4FA0"/>
<path d="M49.3283 197.37C50.6564 197.37 51.733 196.294 51.733 194.967C51.733 193.64 50.6564 192.565 49.3283 192.565C48.0002 192.565 46.9236 193.64 46.9236 194.967C46.9236 196.294 48.0002 197.37 49.3283 197.37Z" fill="#1A4FA0"/>
<path d="M259.224 71.7559V82.2972" stroke="#1A4FA0" stroke-linecap="round" stroke-linejoin="round"/>
<path d="M253.948 77.0266H264.499" stroke="#1A4FA0" stroke-linecap="round" stroke-linejoin="round"/>
<path d="M264.033 230.465V241.006" stroke="#1A4FA0" stroke-linecap="round" stroke-linejoin="round"/>
<path d="M258.758 235.735H269.309" stroke="#1A4FA0" stroke-linecap="round" stroke-linejoin="round"/>
<path d="M79.5588 31.7968V42.3381" stroke="#1A4FA0" stroke-linecap="round" stroke-linejoin="round"/>
<path d="M74.2832 37.0674H84.8344" stroke="#1A4FA0" stroke-linecap="round" stroke-linejoin="round"/>
<path d="M155.994 264.957C205.742 264.957 246.072 262.444 246.072 259.343C246.072 256.243 205.742 253.729 155.994 253.729C106.245 253.729 65.9158 256.243 65.9158 259.343C65.9158 262.444 106.245 264.957 155.994 264.957Z" fill="#F2F2F2"/>
<path d="M242.048 65.7743C242.041 73.2298 239.074 80.3781 233.797 85.6499C228.52 90.9217 221.365 93.8863 213.903 93.8928C212.985 93.8926 212.068 93.8435 211.155 93.7457L202.812 107.351L200.211 90.3136C195.876 87.9023 192.257 84.3892 189.719 80.1302C187.181 75.8712 185.816 71.0177 185.76 66.0614C185.705 61.1052 186.961 56.2224 189.403 51.9077C191.845 47.593 195.385 43.9999 199.664 41.4923C203.944 38.9847 208.81 37.6518 213.772 37.6287C218.733 37.6055 223.612 38.8929 227.915 41.3605C232.217 43.828 235.791 47.388 238.273 51.6797C240.755 55.9714 242.057 60.8423 242.048 65.7988V65.7743Z" fill="white" stroke="#57B74A" stroke-width="2" stroke-linecap="round" stroke-linejoin="round"/>
<path d="M201.879 68.618C203.451 68.618 204.725 67.3448 204.725 65.7743C204.725 64.2037 203.451 62.9305 201.879 62.9305C200.307 62.9305 199.033 64.2037 199.033 65.7743C199.033 67.3448 200.307 68.618 201.879 68.618Z" fill="#D2D2D2" stroke="#57B74A" stroke-miterlimit="10"/>
<path d="M213.903 68.618C215.475 68.618 216.749 67.3448 216.749 65.7743C216.749 64.2037 215.475 62.9305 213.903 62.9305C212.331 62.9305 211.057 64.2037 211.057 65.7743C211.057 67.3448 212.331 68.618 213.903 68.618Z" fill="#D2D2D2" stroke="#57B74A" stroke-miterlimit="10"/>
<path d="M225.926 68.618C227.498 68.618 228.773 67.3448 228.773 65.7743C228.773 64.2037 227.498 62.9305 225.926 62.9305C224.354 62.9305 223.08 64.2037 223.08 65.7743C223.08 67.3448 224.354 68.618 225.926 68.618Z" fill="#D2D2D2" stroke="#57B74A" stroke-miterlimit="10"/>
</svg>
